<?xml version="1.0" standalone="no"?>
<!DOCTYPE svg PUBLIC "-//W3C//DTD SVG 20010904//EN"
 "http://www.w3.org/TR/2001/REC-SVG-20010904/DTD/svg10.dtd">
<svg version="1.0" xmlns="http://www.w3.org/2000/svg"
 width="640.000000pt" height="640.000000pt" viewBox="0 0 640.000000 640.000000"
 preserveAspectRatio="xMidYMid meet">
<metadata>
Created by potrace 1.14, written by Peter Selinger 2001-2017
</metadata>
<g transform="translate(0.000000,640.000000) scale(0.100000,-0.100000)"
fill="#000000" stroke="none">
<path d="M1000 6291 c-8 -5 -32 -11 -52 -15 -21 -4 -42 -15 -47 -24 -27 -51
-37 -290 -17 -432 11 -78 15 -88 38 -92 14 -2 25 -13 29 -28 4 -14 7 -19 8
-12 1 11 4 10 16 -1 12 -12 12 -22 3 -49 -6 -18 -15 -37 -19 -42 -19 -21 -7
-36 36 -47 25 -6 45 -16 45 -23 0 -6 6 0 13 14 7 14 12 57 12 100 -1 41 2 82
6 90 5 8 20 62 34 120 20 86 25 130 25 235 0 72 -4 135 -8 141 -7 10 -97 74
-104 74 -2 0 -10 -4 -18 -9z m30 -596 c0 -8 -7 -15 -15 -15 -16 0 -20 12 -8
23 11 12 23 8 23 -8z"/>
<path d="M0 4785 c0 -913 1 -965 18 -964 20 1 62 17 47 19 -21 2 59 30 89 31
17 1 85 -1 151 -4 77 -4 124 -2 132 5 7 6 20 8 28 4 9 -3 24 2 35 12 35 32 54
47 62 48 5 1 13 2 18 3 6 0 10 14 10 30 0 32 14 41 62 41 27 0 30 2 24 26 -4
15 -2 32 5 40 9 11 8 21 -1 45 -12 28 -11 32 6 42 10 6 43 12 72 14 51 3 53 2
63 -27 6 -16 17 -30 25 -30 9 0 14 -11 14 -29 0 -17 5 -33 10 -36 14 -9 12
-28 -4 -50 -11 -15 -17 -17 -28 -7 -12 9 -21 7 -47 -12 -23 -17 -45 -24 -77
-24 -24 1 -47 -2 -51 -5 -8 -8 16 -37 31 -37 6 0 17 -9 24 -21 11 -18 11 -24
-4 -40 -9 -11 -14 -22 -10 -27 4 -4 168 -7 364 -7 239 0 399 -5 484 -14 118
-13 129 -13 146 3 37 32 129 55 332 80 113 14 219 26 235 28 30 3 30 3 27 60
-6 88 28 176 99 263 33 39 59 74 59 78 0 3 11 22 24 42 14 20 30 62 37 93 7
31 27 86 46 122 18 35 33 68 33 72 0 4 -18 8 -40 8 -58 0 -109 28 -132 73
l-19 38 -28 -38 c-16 -21 -54 -63 -86 -93 -31 -30 -65 -71 -75 -91 -11 -20
-25 -39 -32 -41 -7 -3 -38 2 -68 11 -49 15 -60 23 -95 75 l-40 58 -5 153 c-5
150 -13 187 -39 171 -6 -4 -11 -26 -11 -49 0 -55 -24 -167 -44 -205 -17 -33
-59 -52 -115 -52 -30 0 -44 7 -72 38 -63 66 -117 137 -121 157 -3 17 -32 55
-42 55 -3 0 -6 -12 -9 -27 l-4 -28 -8 32 c-4 18 -14 38 -21 44 -8 6 -12 15 -9
19 2 4 -7 5 -20 2 -17 -3 -28 -15 -35 -37 -6 -18 -18 -39 -26 -45 -7 -7 -14
-20 -14 -29 0 -10 -9 -27 -19 -38 -11 -12 -17 -23 -14 -27 3 -3 1 -11 -5 -18
-5 -7 -13 -40 -17 -73 -16 -142 -96 -223 -188 -191 -40 14 -60 35 -70 76 -8
34 -19 185 -21 295 -2 50 -6 97 -10 106 -9 20 -24 161 -19 175 2 7 -7 34 -21
61 l-25 49 -93 -11 c-107 -14 -133 -9 -181 34 -63 58 -176 121 -215 121 -9 0
-53 18 -99 41 -74 37 -84 45 -93 77 -5 21 -10 44 -10 52 0 26 -29 58 -76 86
-46 27 -178 84 -195 84 -5 0 -9 -403 -9 -965z"/>
<path d="M2804 5434 c3 -8 6 -27 6 -41 0 -36 13 -20 14 17 1 17 -5 32 -13 35
-9 4 -11 0 -7 -11z"/>
<path d="M5554 5292 c-16 -16 -44 -36 -61 -45 -39 -21 -41 -26 -38 -117 2 -91
-29 -304 -56 -379 -10 -31 -19 -72 -19 -93 0 -30 -8 -45 -37 -75 -37 -37 -39
-38 -116 -38 -46 0 -81 5 -85 11 -4 6 -17 15 -30 18 -28 9 -63 42 -81 79 -8
15 -20 27 -28 27 -7 0 -32 -20 -55 -45 -23 -25 -49 -45 -58 -45 -9 0 -49 -27
-90 -61 -93 -75 -110 -82 -186 -74 -58 6 -63 5 -82 -19 -11 -15 -18 -35 -15
-45 7 -27 -23 -68 -58 -80 -16 -5 -29 -7 -29 -4 0 3 -9 -2 -20 -12 -19 -18
-20 -17 -20 3 0 34 -32 92 -50 92 -9 0 -27 9 -40 20 -13 11 -32 20 -44 20 -28
1 -71 34 -62 49 4 6 13 11 19 10 25 -3 38 1 32 11 -4 6 -11 8 -16 5 -5 -4 -9
-1 -9 6 0 8 -5 7 -16 -2 -15 -12 -16 -11 -10 9 6 17 4 21 -8 16 -15 -6 -21 6
-17 29 1 5 -3 6 -9 2 -5 -3 -13 1 -16 10 -4 9 -13 14 -21 11 -8 -3 -24 1 -36
9 -30 21 -40 19 -34 -6 3 -12 3 -18 0 -15 -4 3 -12 1 -19 -5 -19 -15 -74 28
-74 58 0 18 -6 23 -24 23 -15 0 -26 7 -29 20 -4 15 -12 19 -41 16 -20 -2 -39
-6 -43 -10 -3 -3 -12 -1 -19 5 -10 9 -15 7 -20 -5 -8 -20 -34 -21 -34 -1 0 8
-9 15 -21 15 -11 0 -30 5 -41 11 -18 10 -20 9 -15 -5 9 -24 -12 -30 -34 -10
-16 14 -23 15 -42 5 -30 -16 -94 -7 -121 17 -31 28 -99 60 -143 68 -21 4 -46
11 -55 16 -12 5 -18 5 -18 -1 0 -6 9 -15 21 -21 36 -20 15 -20 -37 -1 -47 17
-52 17 -71 2 -11 -9 -18 -21 -16 -27 2 -7 -17 -13 -49 -16 -30 -2 -69 -12 -88
-21 -30 -16 -35 -16 -42 -2 -12 20 -26 19 -71 -5 -20 -11 -37 -17 -37 -14 0 4
-6 1 -14 -5 -10 -9 -16 -9 -21 -1 -5 8 -13 6 -26 -6 -10 -9 -16 -20 -13 -25 2
-5 -5 -18 -18 -31 -14 -14 -23 -17 -26 -10 -6 18 -25 14 -49 -12 -17 -17 -19
-26 -11 -34 8 -8 8 -12 1 -12 -13 0 -73 -57 -73 -70 0 -5 -6 -13 -14 -17 -13
-7 -69 -76 -106 -129 -8 -12 -43 -58 -78 -103 -60 -77 -92 -146 -92 -199 0
-22 0 -22 32 -5 18 9 40 17 48 18 28 3 90 27 90 35 0 14 44 20 52 7 5 -8 8 -7
8 4 0 9 7 20 15 23 13 4 15 -1 14 -27 -2 -17 -2 -44 -1 -60 2 -24 5 -27 27
-21 19 5 25 2 25 -10 0 -18 2 -18 -66 -21 -28 -1 -57 -6 -64 -10 -7 -4 -33
-10 -58 -12 -48 -4 -65 -10 -58 -22 8 -13 -128 -39 -334 -66 -262 -33 -348
-58 -325 -95 13 -22 59 -31 229 -46 309 -26 477 -43 485 -49 15 -9 22 -110 11
-160 -6 -27 -8 -61 -4 -77 9 -45 60 -96 106 -109 37 -10 40 -12 34 -39 -5 -28
-4 -29 21 -19 39 14 46 1 51 -95 3 -66 7 -83 18 -79 8 3 14 -1 14 -8 0 -16
-22 -79 -33 -96 -5 -8 -4 -13 2 -13 6 0 11 5 11 10 0 6 7 10 15 10 18 0 19
-14 4 -41 -7 -14 -16 -18 -30 -14 -14 5 -21 0 -29 -20 -15 -38 -12 -53 11 -76
18 -18 29 -21 74 -15 53 6 53 6 60 -23 3 -16 24 -55 46 -86 21 -31 39 -64 39
-75 0 -10 15 -30 33 -44 33 -25 73 -101 97 -183 16 -52 71 -107 129 -128 105
-37 213 -4 348 107 25 21 51 38 59 38 21 0 210 -192 218 -221 31 -115 43 -130
80 -106 66 44 195 186 308 341 21 28 42 56 48 63 5 7 10 17 10 23 0 5 6 10 14
10 8 0 17 9 21 19 3 11 15 23 27 27 15 4 17 8 8 14 -7 4 -9 13 -6 19 5 7 -2
11 -18 11 -26 0 -35 14 -16 25 6 3 10 1 10 -5 0 -6 4 -9 9 -5 5 3 17 -5 25
-17 l16 -22 31 38 c30 34 46 96 25 96 -4 0 -6 6 -3 14 4 11 0 12 -22 3 -16 -6
-36 -7 -47 -2 -29 13 -38 12 -55 -2 -13 -11 -18 -11 -27 0 -12 14 -5 31 18 40
10 4 8 6 -7 6 -26 1 -56 28 -47 43 4 6 0 14 -7 19 -11 7 -9 9 8 9 19 0 20 3
10 23 -8 18 -17 22 -35 19 -14 -3 -27 -13 -29 -23 -7 -25 -23 -24 -23 1 0 11
5 20 10 20 6 0 10 9 10 20 0 23 9 25 44 9 20 -10 29 -9 43 2 13 10 15 11 9 1
-12 -20 22 -51 63 -57 20 -4 47 -8 60 -11 18 -4 22 -2 18 10 -4 10 2 20 14 27
16 8 18 14 10 22 -9 9 -17 8 -34 -2 -35 -22 -87 -31 -87 -16 0 8 10 15 23 17
20 3 22 7 19 61 -4 61 6 72 32 35 9 -12 19 -18 23 -14 5 5 2 11 -4 13 -23 8 5
45 28 38 14 -5 19 -2 19 14 0 11 8 22 18 24 14 4 14 5 -3 6 -18 1 -20 7 -17
41 4 35 2 40 -17 40 -18 0 -19 3 -11 26 11 27 0 58 -22 67 -10 4 -10 7 0 15
10 6 4 15 -22 33 -50 33 -48 53 4 46 54 -7 66 7 81 98 l13 74 40 6 c41 6 157
-5 251 -24 28 -5 75 -12 105 -15 146 -14 238 -26 270 -35 19 -6 55 -13 80 -16
118 -15 216 -31 225 -36 9 -6 65 -19 105 -25 8 -1 38 -7 65 -12 42 -9 188 -25
212 -24 5 0 13 -4 20 -10 7 -5 22 -8 35 -7 13 2 28 0 34 -3 6 -4 60 -12 120
-17 114 -11 191 -28 200 -42 3 -5 14 -9 25 -9 11 0 18 -4 15 -9 -5 -8 23 -40
34 -39 3 1 15 -2 28 -6 20 -7 27 -18 23 -39 -1 -5 3 -5 9 -2 6 4 19 0 28 -8 9
-8 29 -15 45 -15 l27 1 0 740 c0 407 -3 737 -6 734 -4 -4 -10 -62 -15 -129 -5
-90 -14 -144 -33 -201 -15 -43 -31 -99 -37 -125 -13 -60 -41 -89 -93 -98 -33
-5 -37 -8 -21 -14 21 -8 0 -12 -125 -25 -154 -16 -318 -44 -326 -56 -3 -5 -20
-9 -39 -9 -19 0 -45 -4 -59 -9 -13 -6 -42 -12 -63 -14 -21 -3 -49 -8 -63 -11
-14 -3 -54 -8 -90 -10 -80 -6 -142 -16 -155 -26 -5 -4 -37 -11 -70 -14 -78
-10 -134 -25 -167 -48 -15 -10 -30 -18 -35 -17 -22 4 -23 -3 -4 -27 12 -15 21
-39 21 -53 0 -15 5 -32 11 -38 14 -14 -10 -70 -45 -102 -24 -22 -29 -23 -65
-12 -96 28 -121 168 -41 224 17 12 19 19 11 40 -5 14 -15 28 -20 32 -6 3 -11
19 -11 34 0 20 7 31 26 39 14 7 23 16 19 21 -10 17 59 42 143 52 46 6 95 17
110 25 15 8 41 14 58 14 16 0 35 5 41 11 12 12 111 37 178 46 22 3 45 9 50 13
6 4 40 11 77 15 36 3 106 15 155 26 48 11 102 23 118 26 17 3 39 12 50 19 12
9 46 14 87 14 66 0 68 1 85 33 9 17 15 48 14 67 -2 19 -7 71 -11 115 -4 44 -4
123 1 175 4 52 13 156 19 230 6 74 13 161 17 192 l5 57 -60 -4 c-51 -4 -67 -1
-106 21 -32 18 -48 34 -52 52 -16 81 -19 87 -54 98 -19 6 -83 15 -141 19
l-106 7 -29 -30z m-2156 -592 c27 -12 44 -30 28 -30 -8 0 -76 42 -76 47 0 2 3
3 8 1 4 -3 22 -11 40 -18z m-450 -36 c-4 -3 -19 -4 -35 -2 l-28 4 25 11 c23
10 51 1 38 -13z m682 0 c0 -8 -4 -12 -10 -9 -5 3 -10 10 -10 16 0 5 5 9 10 9
6 0 10 -7 10 -16z m549 -233 c33 -18 33 -18 10 -24 -13 -4 -33 -7 -43 -7 -11
0 -28 -7 -38 -17 -19 -17 -26 -5 -7 14 8 8 5 13 -12 18 l-22 7 24 14 c32 18
47 17 88 -5z m213 -213 c-6 -6 -7 0 -4 19 5 21 7 23 10 9 2 -10 0 -22 -6 -28z
m-20 -214 c-2 -19 -8 -34 -12 -34 -7 0 -7 139 0 165 5 19 16 -97 12 -131z
m-1702 91 c0 -8 -4 -15 -10 -15 -5 0 -10 7 -10 15 0 8 5 15 10 15 6 0 10 -7
10 -15z m249 -211 c-38 -21 -58 -17 -31 6 13 10 30 16 39 13 12 -5 11 -8 -8
-19z m1421 -624 c0 -5 -4 -10 -10 -10 -5 0 -10 5 -10 10 0 6 5 10 10 10 6 0
10 -4 10 -10z m-30 -147 c0 -7 4 -13 10 -13 5 0 7 -6 4 -14 -3 -8 -12 -12 -19
-10 -7 3 -16 1 -20 -5 -4 -8 -12 -8 -26 -1 -14 8 -19 7 -19 -1 0 -7 -2 -10 -5
-7 -9 9 7 38 21 38 8 0 14 10 14 23 0 13 3 27 7 31 9 8 33 -22 33 -41z m-63
31 c-3 -3 -12 -4 -19 -1 -8 3 -5 6 6 6 11 1 17 -2 13 -5z m-198 -147 c1 -5 -3
-5 -9 -2 -5 3 -10 16 -9 28 0 21 1 21 9 2 5 -11 9 -24 9 -28z m101 24 c0 -6
-4 -13 -10 -16 -5 -3 -10 1 -10 9 0 9 5 16 10 16 6 0 10 -4 10 -9z m90 -17 c0
-8 -5 -12 -10 -9 -6 4 -8 11 -5 16 9 14 15 11 15 -7z m-240 -20 c0 -8 -5 -12
-10 -9 -6 4 -8 11 -5 16 9 14 15 11 15 -7z m-10 -24 c13 -8 13 -10 -2 -10 -9
0 -20 5 -23 10 -8 13 5 13 25 0z m70 -51 c-7 -12 -17 -18 -27 -15 -8 3 -17 6
-21 6 -12 0 33 29 46 30 10 0 10 -5 2 -21z m251 -179 c-2 -8 -6 -24 -9 -34 -4
-15 -2 -18 13 -12 16 6 17 5 3 -16 -18 -26 -28 -27 -43 -4 -7 11 -6 22 3 36
10 17 10 21 -3 26 -25 10 -17 26 13 22 18 -2 26 -8 23 -18z m-71 -121 c0 -14
-29 -43 -36 -36 -5 4 -2 12 6 17 12 7 11 12 -4 29 -18 20 -18 20 8 8 14 -7 26
-15 26 -18z"/>
<path d="M2795 5278 c-3 -13 -3 -32 -1 -43 3 -11 5 -24 5 -29 2 -17 31 17 31
36 0 17 -3 18 -15 8 -13 -10 -15 -9 -15 9 0 11 5 21 10 21 6 0 10 5 10 10 0
20 -20 10 -25 -12z"/>
<path d="M2789 5178 c-1 -7 -1 -18 0 -25 3 -21 -20 -25 -34 -7 -14 18 -14 18
-15 -3 0 -14 6 -23 15 -23 8 0 15 -4 15 -10 0 -5 -4 -10 -8 -10 -19 0 -52 -39
-57 -66 -7 -43 -17 -123 -20 -169 -1 -22 -5 -59 -9 -82 -3 -26 -2 -43 4 -43
11 0 130 62 162 84 18 13 20 24 19 83 -1 38 -5 83 -10 101 -5 18 -7 32 -4 32
3 0 1 6 -4 13 -11 14 -10 68 1 86 11 18 -1 26 -18 12 -9 -7 -17 -8 -20 -2 -3
5 -1 11 6 13 6 2 8 10 4 16 -9 16 -26 15 -27 0z"/>
<path d="M2400 4949 c0 -5 5 -7 10 -4 6 3 10 8 10 11 0 2 -4 4 -10 4 -5 0 -10
-5 -10 -11z"/>
<path d="M3058 4763 c7 -3 16 -2 19 1 4 3 -2 6 -13 5 -11 0 -14 -3 -6 -6z"/>
<path d="M3615 4740 c3 -5 13 -10 21 -10 8 0 12 5 9 10 -3 6 -13 10 -21 10 -8
0 -12 -4 -9 -10z"/>
<path d="M2749 4678 c-9 -28 -3 -48 14 -48 16 0 17 3 7 15 -6 8 -9 19 -5 25 3
5 1 10 -4 10 -6 0 -11 -1 -12 -2z"/>
<path d="M88 3833 c7 -3 16 -2 19 1 4 3 -2 6 -13 5 -11 0 -14 -3 -6 -6z"/>
<path d="M4305 2990 c-4 -6 -2 -17 4 -23 15 -15 25 -2 13 19 -7 12 -11 13 -17
4z"/>
<path d="M4350 2975 c0 -8 5 -15 10 -15 6 0 10 7 10 15 0 8 -4 15 -10 15 -5 0
-10 -7 -10 -15z"/>
<path d="M4436 2911 c-4 -5 -2 -12 3 -15 5 -4 12 -2 15 3 4 5 2 12 -3 15 -5 4
-12 2 -15 -3z"/>
<path d="M4250 2871 c0 -18 18 -21 30 -6 10 13 9 15 -9 15 -11 0 -21 -4 -21
-9z"/>
<path d="M4860 2855 c-7 -9 -10 -18 -7 -21 6 -7 47 18 47 28 0 14 -27 9 -40
-7z"/>
<path d="M4251 2814 c0 -11 3 -14 6 -6 3 7 2 16 -1 19 -3 4 -6 -2 -5 -13z"/>
<path d="M6312 2818 c-14 -14 -16 -28 -3 -28 5 0 11 9 14 20 6 23 5 24 -11 8z"/>
<path d="M6340 2808 c0 -7 -7 -22 -15 -32 -14 -19 -15 -19 -35 -1 -21 19 -29
8 -8 -13 8 -8 8 -15 -2 -27 -10 -13 -9 -15 6 -15 15 0 16 -2 5 -9 -8 -5 -19
-7 -26 -5 -6 3 -19 -4 -29 -15 -26 -28 -4 -59 49 -66 33 -6 40 -10 41 -31 1
-13 -3 -24 -10 -24 -6 -1 -22 -10 -35 -20 -19 -16 -22 -26 -17 -54 10 -53 1
-64 -47 -59 -28 2 -49 -2 -61 -12 -20 -15 -20 -15 0 -29 19 -15 19 -15 -1 -30
-18 -14 -21 -13 -33 1 -19 27 -34 3 -26 -45 5 -29 12 -42 28 -47 19 -6 18 -8
-12 -21 -26 -11 -37 -12 -48 -3 -7 6 -13 14 -12 17 2 23 -5 24 -21 3 -18 -24
-18 -25 0 -61 11 -20 31 -42 45 -49 14 -6 22 -16 19 -21 -4 -6 -10 -8 -15 -5
-4 3 -11 -2 -14 -11 -5 -13 -9 -14 -20 -5 -8 7 -17 8 -20 3 -3 -5 -17 -7 -31
-4 -23 4 -30 -4 -26 -30 0 -5 -6 -8 -14 -8 -8 0 -15 -4 -15 -10 0 -5 7 -10 15
-10 9 0 19 -10 24 -23 5 -12 21 -29 35 -36 29 -16 34 -31 11 -31 -9 0 -18 7
-22 16 -4 12 -8 13 -14 3 -4 -7 -3 -19 3 -26 8 -10 5 -13 -12 -13 -17 0 -21 4
-17 20 3 10 -1 24 -9 31 -9 7 -14 8 -14 1 0 -6 -11 -9 -26 -6 -18 3 -25 1 -21
-8 2 -7 14 -13 26 -12 14 0 20 -4 17 -13 -3 -7 1 -18 8 -25 7 -7 11 -20 9 -29
-3 -10 5 -27 18 -40 23 -23 56 -69 153 -214 46 -68 109 -190 161 -310 19 -43
53 -170 65 -239 15 -92 25 -376 12 -376 -6 0 -17 -2 -24 -5 -11 -4 -13 3 -10
30 2 19 0 35 -5 35 -5 0 -6 21 -3 48 3 26 1 85 -3 132 -4 47 -9 109 -11 139
-1 35 -7 56 -16 59 -9 3 -11 -1 -6 -13 4 -11 1 -22 -6 -26 -10 -6 -13 -52 -13
-186 0 -98 -4 -180 -8 -183 -4 -3 -20 29 -34 70 -14 41 -30 76 -34 78 -5 2 -9
10 -9 18 0 8 -7 17 -15 20 -8 4 -15 12 -15 18 0 7 -11 23 -25 36 -20 18 -28
21 -37 12 -9 -9 -9 -12 0 -12 17 0 45 -66 37 -89 -3 -10 -1 -22 4 -26 6 -3 14
-20 20 -38 23 -81 60 -166 80 -186 13 -13 21 -34 21 -56 0 -22 6 -38 15 -41
17 -7 21 -44 5 -44 -5 0 -10 5 -10 11 0 6 -15 25 -32 44 -43 44 -68 74 -68 80
0 3 -11 18 -25 33 -14 15 -25 33 -25 40 0 7 -7 15 -15 18 -8 4 -15 10 -15 15
0 15 -56 79 -69 79 -4 0 -14 -6 -23 -12 -13 -10 -15 -24 -11 -60 3 -29 11 -48
18 -48 7 0 16 -10 19 -22 6 -25 70 -98 85 -98 5 0 16 -12 25 -26 10 -14 34
-41 55 -60 21 -19 44 -48 51 -64 7 -17 16 -30 21 -30 5 0 9 -8 9 -19 0 -10 7
-24 15 -31 8 -7 15 -18 15 -24 0 -6 10 -27 22 -46 12 -19 23 -53 25 -75 2 -22
8 -54 14 -72 6 -18 11 -46 11 -63 1 -16 5 -30 9 -30 5 0 13 -15 18 -33 6 -20
10 483 10 1381 l1 1412 -30 0 c-17 0 -30 -5 -30 -12z m-200 -578 c0 -5 -4 -10
-10 -10 -5 0 -10 -7 -10 -15 0 -8 -9 -19 -20 -25 -28 -15 -27 13 2 40 24 22
38 26 38 10z m0 -110 c0 -5 -7 -10 -15 -10 -8 0 -15 5 -15 10 0 6 7 10 15 10
8 0 15 -4 15 -10z m-80 -90 c0 -5 -4 -10 -9 -10 -6 0 -13 5 -16 10 -3 6 1 10
9 10 9 0 16 -4 16 -10z m-35 -1230 c3 -6 -1 -7 -9 -4 -18 7 -21 14 -7 14 6 0
13 -4 16 -10z m345 -110 c0 -34 -5 -37 -26 -15 -13 12 -13 17 -2 29 20 23 28
19 28 -14z m-5 -127 c-4 -10 -10 -26 -12 -35 -3 -10 -11 -18 -18 -18 -9 0 -9
9 3 35 16 35 41 51 27 18z m15 -64 c0 -6 -4 -7 -10 -4 -5 3 -10 11 -10 16 0 6
5 7 10 4 6 -3 10 -11 10 -16z m-50 -62 c0 -19 -1 -20 -20 -2 -11 10 -20 30
-20 44 l1 26 19 -24 c11 -13 20 -32 20 -44z m40 -217 c0 -5 -4 -10 -10 -10 -5
0 -10 5 -10 10 0 6 5 10 10 10 6 0 10 -4 10 -10z"/>
<path d="M4290 2800 c0 -5 5 -10 10 -10 6 0 10 5 10 10 0 6 -4 10 -10 10 -5 0
-10 -4 -10 -10z"/>
<path d="M4320 2800 c0 -5 5 -10 11 -10 5 0 7 5 4 10 -3 6 -8 10 -11 10 -2 0
-4 -4 -4 -10z"/>
<path d="M4400 2800 c0 -5 11 -10 25 -10 14 0 25 5 25 10 0 6 -11 10 -25 10
-14 0 -25 -4 -25 -10z"/>
<path d="M6260 2600 c0 -5 12 -10 26 -10 14 0 23 4 19 10 -3 6 -15 10 -26 10
-10 0 -19 -4 -19 -10z"/>
<path d="M0 1134 l0 -1134 1690 0 c930 0 1690 3 1690 8 0 4 -7 115 -15 247
-14 229 -12 351 10 545 5 38 4 42 -6 25 -27 -46 -40 -54 -65 -43 -13 6 -24 15
-24 20 0 10 -14 28 -44 58 -12 12 -15 20 -7 20 7 0 9 4 6 10 -12 20 -35 10
-35 -15 0 -32 -17 -32 -32 0 -10 21 -9 29 6 43 10 10 19 13 24 7 11 -16 57
-12 57 5 0 8 8 15 17 15 10 0 27 8 38 18 25 21 30 21 30 1 0 -12 6 -15 24 -10
15 4 26 1 29 -7 3 -6 6 -2 6 11 1 12 5 22 10 22 5 0 13 12 19 28 13 31 42 144
42 161 0 16 -19 14 -36 -4 -10 -10 -21 -12 -32 -6 -26 13 -102 13 -102 -1 0
-10 -114 -8 -277 4 -7 1 -13 10 -13 21 0 12 -5 17 -13 14 -10 -4 -12 3 -9 26
4 25 2 29 -12 24 -12 -5 -16 -1 -16 17 0 20 10 27 72 47 81 26 123 26 220 0
70 -19 121 -17 166 8 17 9 22 9 22 -1 0 -10 2 -10 9 0 8 14 32 13 42 -2 11
-14 37 35 45 82 4 28 3 42 -5 42 -6 0 -11 -5 -11 -11 0 -16 -35 -6 -36 11 -1
27 -23 70 -36 70 -9 0 -8 3 2 10 11 8 8 9 -11 4 -30 -6 -48 11 -30 29 18 18
13 27 -19 27 -22 0 -30 5 -31 18 0 10 -3 12 -6 5 -4 -10 -9 -10 -25 2 -29 20
-56 3 -60 -38 -2 -26 -7 -32 -25 -30 -17 2 -23 -2 -23 -17 0 -10 -4 -22 -10
-25 -6 -3 -10 -2 -10 4 0 6 -12 8 -28 5 -19 -4 -34 0 -44 10 -14 14 -17 13
-33 -4 -10 -11 -24 -20 -31 -20 -7 0 -15 -6 -17 -12 -4 -9 -6 -9 -6 -2 -1 12
-56 5 -79 -10 -6 -3 -17 0 -24 8 -9 8 -25 12 -42 9 -15 -3 -38 0 -51 7 -20 11
-27 11 -40 0 -12 -10 -21 -10 -43 -1 -21 9 -36 9 -56 1 -36 -13 -56 1 -56 41
0 24 4 29 24 29 16 0 27 7 31 20 4 11 11 17 17 14 7 -4 8 -2 4 4 -10 16 -12
15 -37 -11 l-22 -22 6 22 c5 22 -14 49 -26 36 -4 -3 -7 3 -7 15 0 26 -2 26
-69 10 -28 -6 -59 -20 -69 -31 -17 -19 -16 -20 21 -13 36 7 38 6 27 -13 -6
-13 -21 -21 -36 -21 -22 0 -25 -4 -22 -27 2 -17 10 -29 21 -31 10 -2 16 2 15
10 -2 7 5 13 15 12 57 -3 74 -5 87 -15 11 -8 12 -12 3 -16 -7 -2 -13 -14 -13
-26 0 -16 -3 -18 -12 -9 -7 7 -18 12 -25 12 -16 0 -17 -37 -1 -42 7 -3 6 -7
-5 -11 -11 -4 -17 -1 -17 8 0 8 -7 15 -15 15 -17 0 -20 -16 -5 -25 6 -3 7 -17
4 -30 -3 -12 -1 -26 5 -29 17 -11 13 -24 -9 -31 -11 -3 -20 -13 -20 -21 0 -14
-17 -19 -52 -16 -10 1 -18 -3 -18 -9 0 -6 -9 -8 -19 -4 -16 5 -18 2 -14 -14 4
-16 -1 -21 -30 -26 -19 -4 -43 -5 -53 -4 -11 2 -25 0 -33 -5 -7 -5 -16 -4 -20
1 -3 5 -24 10 -46 10 -22 1 -56 2 -75 4 -34 3 -35 3 -34 -34 1 -24 -3 -37 -11
-37 -7 0 -16 -8 -19 -17 -5 -11 -10 -14 -14 -6 -4 6 -38 13 -77 16 -38 3 -92
8 -120 11 -43 4 -56 1 -95 -24 -35 -22 -61 -30 -115 -34 -38 -3 -97 -7 -130
-10 -44 -3 -51 -3 -25 3 19 5 27 9 18 10 -10 0 -18 4 -18 9 0 4 -25 18 -54 31
-38 17 -56 31 -61 48 -3 12 -10 23 -16 23 -5 0 -14 10 -19 23 l-9 22 0 -22
c-1 -14 -7 -23 -16 -23 -8 0 -15 -7 -15 -15 0 -16 -7 -18 -58 -16 -18 0 -31
-3 -28 -8 3 -5 -13 -11 -37 -14 -30 -3 -46 0 -54 11 -7 9 -16 13 -19 9 -8 -8
-74 53 -74 68 0 21 -60 39 -134 39 -55 1 -74 5 -84 18 -12 16 -15 16 -47 1
-19 -9 -38 -13 -42 -8 -5 4 -2 10 5 12 22 8 13 28 -14 30 -18 1 -28 -5 -31
-18 -3 -10 -9 -19 -14 -19 -13 0 -11 14 3 28 12 12 11 12 -66 16 -10 1 -22 11
-27 22 -4 12 -15 24 -25 28 -16 6 -16 8 -4 16 11 7 11 10 2 10 -7 0 -15 -7
-19 -15 -5 -14 -7 -14 -23 0 -16 15 -18 14 -24 -2 -6 -14 -9 -15 -16 -4 -6 10
-18 12 -46 7 -22 -4 -55 -8 -74 -9 -19 -1 -41 -8 -48 -14 -7 -7 -29 -13 -49
-13 -28 0 -34 3 -29 16 3 9 6 18 6 20 0 2 14 4 30 4 20 0 30 5 30 15 0 8 7 15
15 15 7 0 18 8 23 17 9 15 14 15 48 4 29 -9 46 -10 67 -2 26 10 35 25 20 34
-5 2 -2 2 5 1 10 -3 16 8 14 27 -1 3 25 12 56 18 55 12 80 21 112 39 44 26 62
32 89 32 33 0 81 37 74 58 -7 19 -61 43 -103 46 -21 2 -46 10 -55 20 -26 25
-106 21 -171 -10 -30 -14 -54 -30 -54 -35 0 -11 -53 0 -58 12 -2 4 -10 5 -19
2 -9 -4 -22 1 -30 13 -12 16 -15 17 -24 4 -8 -13 -11 -13 -24 4 -7 10 -18 15
-24 11 -7 -3 -8 0 -5 9 3 9 9 16 13 16 3 0 13 5 21 10 12 8 10 14 -15 40 -22
23 -25 30 -12 30 25 0 21 19 -6 25 -13 4 -27 5 -33 4 -21 -4 -57 2 -50 8 3 4
-4 13 -16 20 l-23 12 24 1 c14 0 33 -7 43 -17 17 -15 18 -15 18 2 0 14 3 15
15 5 9 -8 29 -10 51 -7 34 6 35 5 32 -21 -5 -44 31 -36 47 10 7 21 10 40 7 43
-4 3 2 3 13 -1 11 -5 14 -9 7 -12 -17 -5 -15 -22 2 -22 18 0 27 36 16 66 -10
25 -8 28 31 37 16 4 33 1 45 -8 10 -8 27 -15 36 -15 9 0 18 -3 21 -7 2 -5 2
-2 0 6 -2 8 2 11 11 8 8 -3 27 -2 43 2 l28 8 -27 6 c-31 8 -35 19 -14 36 11 9
17 8 28 -7 9 -14 19 -17 33 -11 19 8 19 8 -2 15 -33 9 -28 27 5 20 15 -3 21
-3 14 0 -6 3 -10 10 -6 15 3 5 2 9 -3 10 -4 0 -17 3 -28 5 -11 3 -42 8 -68 11
-28 3 -51 12 -54 20 -7 18 2 27 19 17 20 -13 47 -12 58 1 12 14 -5 32 -30 32
-8 1 -60 4 -115 9 -55 4 -107 7 -115 6 -8 -1 -79 -3 -158 -5 -140 -4 -143 -3
-140 17 3 22 37 30 51 11 5 -6 13 -3 22 9 8 11 13 21 11 23 -2 2 -31 6 -65 8
l-61 4 0 -1135z m151 1014 c-9 -25 -32 -31 -39 -10 -3 9 16 23 45 31 1 1 -1
-9 -6 -21z m124 -9 c0 -8 -12 -15 -27 -17 -32 -4 -40 23 -10 31 25 7 37 2 37
-14z m212 -5 c-3 -3 -12 -4 -19 -1 -8 3 -5 6 6 6 11 1 17 -2 13 -5z m-412 -44
c4 7 11 8 18 2 7 -6 36 -13 65 -17 28 -4 52 -10 52 -14 0 -4 11 -13 24 -20 22
-12 23 -14 9 -43 -14 -27 -19 -29 -54 -26 -25 2 -40 -1 -43 -9 -8 -20 -23 -15
-29 8 -5 17 -11 21 -33 16 -15 -3 -38 0 -50 5 -18 9 -22 17 -19 50 3 43 21 63
41 47 8 -7 14 -6 19 1z m180 -9 c3 -5 1 -12 -5 -16 -5 -3 -10 1 -10 9 0 18 6
21 15 7z m313 -24 c11 4 11 1 1 -15 -10 -17 -16 -18 -33 -8 -12 6 -23 12 -25
13 -1 1 0 6 4 12 4 7 13 8 23 2 9 -4 23 -6 30 -4z m-243 -67 c-3 -5 -10 -10
-16 -10 -5 0 -9 5 -9 10 0 6 7 10 16 10 8 0 12 -4 9 -10z m52 -26 c-3 -3 -12
-4 -19 -1 -8 3 -5 6 6 6 11 1 17 -2 13 -5z m-140 -100 c-3 -3 -12 -4 -19 -1
-8 3 -5 6 6 6 11 1 17 -2 13 -5z m3093 -274 c0 -5 -7 -7 -15 -4 -8 4 -15 8
-15 10 0 2 7 4 15 4 8 0 15 -4 15 -10z m-3110 -165 c0 -8 -7 -15 -16 -15 -14
0 -14 3 -4 15 7 8 14 15 16 15 2 0 4 -7 4 -15z m-59 -45 c5 0 9 -4 9 -9 0 -4
-11 -6 -25 -3 -14 2 -25 9 -25 14 0 6 7 7 16 4 9 -3 20 -6 25 -6z m320 -13
c-1 -12 -15 -9 -19 4 -3 6 1 10 8 8 6 -3 11 -8 11 -12z m39 -27 c0 -5 -4 -10
-10 -10 -5 0 -10 5 -10 10 0 6 5 10 10 10 6 0 10 -4 10 -10z m3 -99 c-10 -10
-30 -19 -45 -19 -33 1 -33 0 -13 39 15 29 16 29 45 14 29 -15 30 -16 13 -34z
m432 -1 c-3 -5 -10 -10 -16 -10 -5 0 -9 5 -9 10 0 6 7 10 16 10 8 0 12 -4 9
-10z m1929 -35 c3 -8 1 -15 -4 -15 -6 0 -10 7 -10 15 0 8 2 15 4 15 2 0 6 -7
10 -15z m-2027 -15 c28 0 7 -24 -25 -27 -22 -3 -32 0 -32 10 0 19 12 29 28 22
7 -3 20 -5 29 -5z m237 -242 c-4 -6 -9 -5 -14 2 -5 8 -16 10 -26 6 -18 -6 -18
-5 0 9 14 11 23 12 33 4 7 -6 10 -16 7 -21z m106 8 c0 -28 -14 -42 -53 -51
-25 -7 -27 -5 -27 23 0 33 20 51 58 52 17 0 22 -6 22 -24z m1335 5 c-18 -7
-17 -8 6 -13 15 -2 35 1 45 9 22 16 38 17 28 1 -5 -8 2 -9 24 -5 36 7 37 4 13
-37 -22 -38 -39 -43 -49 -15 -8 21 -9 21 -16 3 -4 -11 -3 -20 3 -22 20 -7 0
-22 -27 -22 -21 0 -23 -3 -12 -10 8 -5 11 -13 6 -17 -4 -4 -15 1 -25 13 -20
25 -60 37 -78 22 -10 -8 -13 -7 -13 5 0 9 5 19 10 22 16 10 1 25 -26 25 -14 0
-24 6 -24 15 0 9 -6 12 -15 9 -8 -4 -15 -1 -15 5 0 14 15 14 40 -1 14 -9 24
-9 42 0 22 11 56 19 88 20 9 0 6 -3 -5 -7z m402 1 c6 -4 15 -20 18 -35 6 -22
4 -27 -10 -27 -12 0 -16 6 -12 20 3 13 -2 25 -16 35 -15 10 -17 15 -7 15 8 0
20 -4 27 -8z m-177 -27 c0 -8 -7 -15 -16 -15 -14 0 -14 3 -4 15 7 8 14 15 16
15 2 0 4 -7 4 -15z m308 -12 c23 -20 39 -63 23 -63 -5 0 -13 5 -16 10 -4 6
-11 8 -16 5 -15 -10 -48 5 -60 27 -20 37 32 52 69 21z m-370 -18 c6 -14 8 -25
4 -25 -12 0 -32 23 -32 37 0 22 16 15 28 -12z m-28 -21 c0 -8 -4 -12 -10 -9
-5 3 -10 10 -10 16 0 5 5 9 10 9 6 0 10 -7 10 -16z m-942 -12 c4 -14 -34 -16
-42 -3 -6 10 13 21 28 17 6 -1 12 -8 14 -14z m-60 -3 c-2 -6 -8 -10 -13 -10
-5 0 -11 4 -13 10 -2 6 4 11 13 11 9 0 15 -5 13 -11z m1052 -19 c0 -5 -4 -10
-9 -10 -6 0 -13 5 -16 10 -3 6 1 10 9 10 9 0 16 -4 16 -10z m-240 -20 c0 -5
-4 -10 -9 -10 -6 0 -13 5 -16 10 -3 6 1 10 9 10 9 0 16 -4 16 -10z m-790 -515
c0 -8 -2 -15 -4 -15 -2 0 -6 7 -10 15 -3 8 -1 15 4 15 6 0 10 -7 10 -15z m-25
-14 c0 -18 -43 -30 -79 -24 -35 7 -33 23 3 23 17 0 33 5 36 11 9 14 40 7 40
-10z"/>
<path d="M205 2020 c-3 -5 3 -10 14 -10 12 0 21 5 21 10 0 6 -6 10 -14 10 -8
0 -18 -4 -21 -10z"/>
<path d="M5967 2183 c-13 -12 -7 -23 13 -23 11 0 20 7 20 15 0 15 -21 21 -33
8z"/>
<path d="M2126 2171 c-3 -5 5 -11 18 -13 17 -4 23 -1 19 9 -6 15 -29 18 -37 4z"/>
<path d="M5925 2120 c-4 -7 -1 -16 6 -21 17 -10 26 8 11 23 -6 6 -12 6 -17 -2z"/>
<path d="M5860 2030 c0 -5 5 -10 11 -10 5 0 7 5 4 10 -3 6 -8 10 -11 10 -2 0
-4 -4 -4 -10z"/>
<path d="M480 1951 c0 -5 12 -9 28 -9 15 0 40 -5 55 -11 16 -6 35 -11 43 -11
25 0 15 18 -17 29 -39 13 -109 14 -109 2z"/>
<path d="M5792 1836 c53 -49 162 -185 187 -234 12 -23 26 -42 32 -42 6 0 37
-27 71 -61 33 -33 62 -58 65 -56 8 8 -23 59 -62 102 -20 22 -38 51 -42 65 -6
28 -28 52 -56 63 -9 4 -20 15 -24 24 -7 19 -42 54 -113 112 -25 20 -49 42 -53
49 -4 6 -16 12 -25 12 -12 0 -6 -10 20 -34z"/>
<path d="M2596 1789 c3 -6 14 -9 23 -6 9 2 22 -2 29 -9 9 -10 7 -14 -8 -19
-11 -4 -20 -11 -20 -16 0 -13 7 -11 35 7 23 15 27 15 50 0 14 -9 25 -23 25
-30 0 -8 7 -17 16 -20 22 -8 22 -9 16 19 -2 14 -10 25 -18 25 -7 0 -17 6 -21
13 -9 15 -89 47 -116 47 -11 0 -15 -5 -11 -11z"/>
<path d="M2655 1730 c-4 -6 -2 -17 5 -25 7 -9 8 -15 0 -20 -15 -9 -12 -45 4
-45 8 0 17 4 21 10 3 5 12 7 20 3 9 -3 15 1 15 10 0 8 -7 18 -16 21 -16 6 -16
8 0 25 9 9 13 21 9 24 -10 11 -51 8 -58 -3z"/>
<path d="M2565 1700 c3 -5 13 -10 21 -10 8 0 14 5 14 10 0 6 -9 10 -21 10 -11
0 -17 -4 -14 -10z"/>
<path d="M3217 1624 c-8 -8 1 -24 14 -24 5 0 9 7 9 15 0 15 -12 20 -23 9z"/>
<path d="M2762 1599 c2 -7 10 -15 17 -17 8 -3 12 1 9 9 -2 7 -10 15 -17 17 -8
3 -12 -1 -9 -9z"/>
<path d="M3120 1600 c0 -5 5 -10 11 -10 5 0 7 5 4 10 -3 6 -8 10 -11 10 -2 0
-4 -4 -4 -10z"/>
<path d="M3191 1594 c0 -11 3 -14 6 -6 3 7 2 16 -1 19 -3 4 -6 -2 -5 -13z"/>
<path d="M2810 1590 c0 -5 5 -10 10 -10 6 0 10 5 10 10 0 6 -4 10 -10 10 -5 0
-10 -4 -10 -10z"/>
<path d="M2695 1510 c4 -6 11 -8 16 -5 14 9 11 15 -7 15 -8 0 -12 -5 -9 -10z"/>
<path d="M2240 1486 c0 -9 -8 -16 -17 -17 -14 0 -15 -2 -3 -6 21 -9 40 -30 33
-37 -4 -3 -1 -6 5 -6 27 0 9 -19 -20 -22 -18 -2 -33 -7 -33 -13 0 -16 53 -18
85 -3 32 14 39 28 15 28 -22 0 -18 17 6 23 13 4 18 10 14 17 -6 9 -10 9 -17
-1 -7 -11 -11 -11 -15 -1 -2 6 -11 12 -19 12 -8 0 -14 6 -14 14 0 8 -4 18 -10
21 -5 3 -10 -1 -10 -9z"/>
<path d="M2545 1480 c3 -5 8 -10 11 -10 2 0 4 5 4 10 0 6 -5 10 -11 10 -5 0
-7 -4 -4 -10z"/>
<path d="M338 1443 c6 -2 18 -2 25 0 6 3 1 5 -13 5 -14 0 -19 -2 -12 -5z"/>
<path d="M6160 1411 c0 -11 4 -22 9 -25 5 -3 9 6 9 19 0 14 -4 25 -9 25 -5 0
-9 -9 -9 -19z"/>
<path d="M1230 1260 c0 -5 4 -10 9 -10 6 0 13 5 16 10 3 6 -1 10 -9 10 -9 0
-16 -4 -16 -10z"/>
<path d="M3016 1233 c-11 -12 7 -31 26 -28 29 6 30 9 3 21 -13 7 -26 9 -29 7z"/>
<path d="M3380 908 c0 -19 2 -20 10 -8 13 19 13 30 0 30 -5 0 -10 -10 -10 -22z"/>
<path d="M4440 876 c0 -8 5 -18 10 -21 6 -3 10 1 10 9 0 8 -4 18 -10 21 -5 3
-10 -1 -10 -9z"/>
<path d="M5988 853 c7 -3 16 -2 19 1 4 3 -2 6 -13 5 -11 0 -14 -3 -6 -6z"/>
<path d="M4796 825 c-3 -9 -6 -22 -5 -28 0 -7 5 -1 10 12 5 13 8 26 5 28 -2 2
-6 -3 -10 -12z"/>
<path d="M4450 808 c1 -16 35 -165 45 -195 4 -13 11 -23 16 -23 18 0 8 88 -16
156 -14 38 -25 70 -25 71 0 2 -4 3 -10 3 -5 0 -10 -6 -10 -12z"/>
<path d="M4765 641 c2 -11 11 -15 31 -14 66 5 75 30 10 30 -34 0 -43 -4 -41
-16z"/>
<path d="M4421 455 c0 -11 4 -29 9 -40 8 -18 9 -18 9 5 0 14 -4 32 -9 40 -8
12 -10 12 -9 -5z"/>
<path d="M4481 444 c0 -11 3 -14 6 -6 3 7 2 16 -1 19 -3 4 -6 -2 -5 -13z"/>
<path d="M5461 386 c-1 -26 2 -37 9 -30 6 6 6 21 1 39 -9 30 -9 30 -10 -9z"/>
<path d="M4786 362 c-3 -4 -4 -28 -4 -52 1 -25 0 -49 -2 -55 -7 -29 2 -75 20
-95 24 -27 26 -48 6 -56 -18 -7 -30 -56 -21 -84 5 -16 15 -20 51 -20 44 0 44
0 44 35 0 19 5 35 10 35 13 0 50 37 50 50 0 6 -15 9 -32 8 -31 -3 -33 -1 -36
32 -2 26 0 31 8 20 6 -9 10 -10 10 -3 0 7 -11 23 -25 37 -19 19 -25 36 -25 69
0 34 -5 48 -25 65 -13 12 -26 18 -29 14z"/>
<path d="M4483 345 c-7 -20 37 -65 63 -65 24 0 12 30 -23 57 -30 23 -33 24
-40 8z"/>
<path d="M5596 305 c4 -8 8 -15 10 -15 2 0 4 7 4 15 0 8 -4 15 -10 15 -5 0 -7
-7 -4 -15z"/>
<path d="M4480 265 c0 -8 5 -15 12 -15 7 0 4 -6 -5 -12 -21 -16 -28 -64 -8
-60 9 2 11 -3 7 -13 -3 -9 -6 -23 -6 -30 0 -8 -13 -15 -32 -17 -34 -3 -42 -22
-10 -24 44 -3 48 -4 34 -13 -11 -7 -12 -12 -1 -29 10 -17 10 -23 0 -36 -12
-14 -3 -16 87 -16 l101 0 -14 28 c-24 47 -55 134 -55 153 0 25 -32 79 -47 79
-7 0 -13 5 -13 10 0 6 -11 10 -25 10 -16 0 -25 -6 -25 -15z"/>
<path d="M4175 260 c-19 -8 -19 -9 3 -9 12 -1 22 4 22 9 0 6 -1 10 -2 9 -2 0
-12 -4 -23 -9z"/>
<path d="M4252 258 c3 -7 16 -14 30 -16 16 -2 28 -11 31 -24 3 -12 10 -17 17
-13 6 4 9 13 6 20 -3 8 0 15 6 17 6 2 8 9 4 16 -5 9 -12 9 -26 0 -15 -10 -22
-10 -32 0 -16 16 -41 16 -36 0z"/>
<path d="M4360 211 c0 -4 3 -11 7 -15 4 -4 8 -15 8 -24 0 -27 30 -20 33 8 2
20 1 22 -7 10 -9 -13 -15 -8 -13 12 1 3 -5 9 -13 12 -8 3 -15 2 -15 -3z"/>
<path d="M5510 201 c0 -6 4 -12 9 -15 13 -8 42 4 35 15 -7 12 -44 12 -44 0z"/>
<path d="M5549 147 c0 -1 -2 -16 -3 -34 -3 -25 1 -34 15 -38 11 -4 19 -14 19
-24 0 -15 -8 -18 -37 -17 -28 1 -38 -3 -38 -14 0 -11 15 -16 62 -18 68 -3 62
-8 77 69 5 24 -25 58 -62 68 -17 5 -32 9 -33 8z"/>
<path d="M5465 90 c-3 -5 1 -10 10 -10 9 0 13 5 10 10 -3 6 -8 10 -10 10 -2 0
-7 -4 -10 -10z"/>
<path d="M4156 65 c-3 -8 -1 -15 4 -15 6 0 10 7 10 15 0 8 -2 15 -4 15 -2 0
-6 -7 -10 -15z"/>
<path d="M4347 23 c-4 -3 -7 -11 -7 -17 0 -6 5 -5 12 2 6 6 9 14 7 17 -3 3 -9
2 -12 -2z"/>
<path d="M5765 10 c-3 -5 -1 -10 4 -10 6 0 11 5 11 10 0 6 -2 10 -4 10 -3 0
-8 -4 -11 -10z"/>
</g>
</svg>
